<svg width="36" height="36" viewBox="0 0 36 36" fill="none" xmlns="http://www.w3.org/2000/svg">
<g clip-path="url(#clip0_605_22)">
<path d="M13.3819 32.0659L10.1055 27.4063L10.148 27.0324C7.78254 26.345 8.49136 26.551 7.25695 26.1924L7.09348 27.6312C7.05248 27.992 7.14516 28.3552 7.35399 28.6521L10.9546 33.7726C11.4261 34.4431 12.3514 34.6042 13.0217 34.1329C13.692 33.6617 13.8533 32.7362 13.3819 32.0659Z" fill="white"/>
<path d="M3.79836 25.1875L3.312 27.2749C3.28634 27.385 3.2734 27.4976 3.27333 27.6106L3.26904 34.5145C3.26848 35.3339 3.93237 35.9985 4.75179 35.9991C4.75207 35.9991 4.75236 35.9991 4.75271 35.9991C5.57164 35.999 6.23588 35.3354 6.2363 34.5164L6.24052 27.7826L6.65192 26.0167L3.79836 25.1875Z" fill="white"/>
<path d="M25.6109 8.41119C27.0981 8.41119 28.3038 7.20554 28.3038 5.71829C28.3038 4.23104 27.0981 3.02539 25.6109 3.02539C24.1236 3.02539 22.918 4.23104 22.918 5.71829C22.918 7.20554 24.1236 8.41119 25.6109 8.41119Z" fill="white"/>
<path d="M9.99564 6.78024C9.59556 8.15717 10.4037 9.58149 11.7611 9.96111L13.0525 8.31186L13.2769 5.06813C11.886 4.59858 10.4004 5.38735 9.99564 6.78024Z" fill="white"/>
<path d="M33.3201 11.641L28.6915 9.63198C28.5282 9.56117 28.3521 9.52454 28.1742 9.52454C26.6553 9.52454 25.132 9.52454 23.6143 9.52454C23.2842 9.10182 16.8939 0.920187 16.5647 0.498874C16.1242 -0.0650322 15.3054 -0.166563 14.7408 0.274718C14.2498 0.658202 13.9936 1.42904 14.592 2.19516C14.5609 2.34451 14.6001 1.87018 14.1446 8.45523L10.7255 11.2826L11.2237 10.6463C11.1785 10.626 11.1941 10.6277 10.9879 10.5617C10.6513 10.4539 9.72376 10.1654 6.97595 9.30502L4.42255 5.32133C4.01382 4.68366 3.16557 4.49797 2.52798 4.90691C1.89031 5.31563 1.70476 6.16388 2.11349 6.80148L4.93604 11.2047C5.10985 11.4759 5.37345 11.6772 5.68086 11.7734C6.74736 12.1073 6.35481 11.9844 7.59638 12.3732L2.4268 22.7094C2.2333 23.0963 2.41203 23.56 2.7958 23.6716C4.64769 24.2097 9.42606 25.5983 11.2792 26.1367C11.6614 26.2477 12.0624 25.9528 12.1064 25.5221L13.3645 13.2079L12.4736 13.3962L16.3461 10.1938C16.6357 9.95429 16.8144 9.60652 16.8403 9.23155L17.1045 5.41182C22.3707 12.154 21.9896 11.6903 22.1547 11.8264L22.1553 34.4404C22.1553 35.3017 22.8534 35.9997 23.7145 35.9997C24.5757 35.9997 25.2738 35.3017 25.2738 34.4404V21.9771H25.9473C25.9475 22.2223 25.7653 21.2933 28.6494 34.7668C28.8301 35.6112 29.6612 36.1453 30.5005 35.9651C31.3426 35.7849 31.8791 34.9561 31.6989 34.1141L29.0373 21.6799V18.0622C29.0885 18.0271 29.1382 17.9892 29.1851 17.9459L33.6849 13.7873C34.3731 13.151 34.1806 12.0145 33.3201 11.641ZM29.0373 14.5438V12.6151L30.4572 13.2314L29.0373 14.5438Z" fill="white"/>
</g>
<defs>
<clipPath id="clip0_605_22">
<rect width="36" height="36" fill="white"/>
</clipPath>
</defs>
</svg>
