<svg width="26" height="26" viewBox="0 0 26 26" fill="none" xmlns="http://www.w3.org/2000/svg">
<g clip-path="url(#clip0_605_11)">
<path d="M18.9583 2.65435C16.2092 1.09711 12.9576 0.684384 9.90666 1.50541C6.85568 2.32644 4.25041 4.31525 2.65411 7.04185C1.09686 9.79095 0.684139 13.0425 1.50517 16.0935C2.32619 19.1444 4.315 21.7497 7.04161 23.346C9.79071 24.9033 13.0422 25.316 16.0932 24.495C19.1442 23.6739 21.7495 21.6851 23.3458 18.9585C24.903 16.2094 25.3157 12.9579 24.4947 9.90691C23.6737 6.85593 21.6849 4.25066 18.9583 2.65435V2.65435ZM20.6374 6.93352C20.2583 11.0502 17.4958 15.4377 15.2208 16.846C14.4887 15.8356 14.0061 14.6662 13.8124 13.4335C16.1958 11.7544 17.8208 8.12519 18.0374 4.65852C19.0225 5.26981 19.9008 6.03832 20.6374 6.93352V6.93352ZM8.55828 13.0002C9.7896 12.8682 11.0346 13.0354 12.1874 13.4877C12.4583 16.4127 14.8416 19.6085 17.7124 21.5585C16.6993 22.1035 15.5999 22.47 14.4624 22.6419C11.0499 20.2585 8.66661 15.6544 8.55828 13.0002ZM3.95411 9.42519C7.69161 7.69185 12.8916 7.90852 15.2208 9.15435C14.7066 10.2968 13.9265 11.2998 12.9458 12.0794C10.3458 10.8335 6.33744 11.2669 3.24994 12.7835C3.29609 11.6327 3.53409 10.4976 3.95411 9.42519V9.42519ZM12.9999 3.25019C14.1858 3.25061 15.3612 3.471 16.4666 3.90019C16.4576 5.17335 16.238 6.43625 15.8166 7.63769C13.2708 6.33769 8.88328 6.12102 5.14578 7.25852C6.04796 6.02031 7.22924 5.01213 8.59383 4.31572C9.95842 3.61931 11.4679 3.25426 12.9999 3.25019V3.25019ZM3.35828 14.571C4.47991 13.9528 5.68357 13.4969 6.93328 13.2169C7.09578 16.0877 9.09994 19.9877 11.9708 22.696C10.6212 22.5296 9.3158 22.1067 8.12494 21.4502C6.87443 20.7234 5.79915 19.7304 4.97537 18.5415C4.1516 17.3527 3.59951 15.9971 3.35828 14.571V14.571ZM21.4499 17.8752C20.8558 18.8884 20.0853 19.7872 19.1749 20.5294C18.0711 19.9076 17.0818 19.1015 16.2499 18.146C18.6333 16.5752 21.0166 12.8919 21.9374 9.10019C22.553 10.4979 22.8297 12.0212 22.745 13.5461C22.6603 15.071 22.2166 16.5543 21.4499 17.8752Z" fill="white"/>
</g>
<defs>
<clipPath id="clip0_605_11">
<rect width="26" height="26" fill="white"/>
</clipPath>
</defs>
</svg>
