<svg width="37" height="37" viewBox="0 0 37 37" fill="none" xmlns="http://www.w3.org/2000/svg">
<path d="M7.55421 32.2207C8.17087 32.2207 8.78754 32.0666 9.55837 31.9124C10.3292 31.6041 10.7917 30.8332 10.6375 29.9082C10.3292 29.1374 9.55837 28.6749 8.78754 28.8291C8.17087 28.9832 7.86254 28.9832 7.70837 28.9832C7.55421 28.9832 7.55421 28.9832 7.55421 28.9832C7.40004 28.8291 7.40004 27.5957 8.63337 25.4374C10.6375 28.6749 14.3375 30.8332 18.5 30.8332C25.2834 30.8332 30.8334 25.2832 30.8334 18.4999C30.8334 14.3374 28.675 10.6374 25.5917 8.32491C27.9042 7.09158 28.9834 7.09158 29.1375 7.24574C29.1375 7.24574 29.2917 7.55408 28.9834 8.63324C28.675 9.40408 29.2917 10.3291 30.0625 10.4832C30.2167 10.4832 30.3709 10.4832 30.525 10.4832C31.1417 10.4832 31.7584 10.0207 32.0667 9.40408C32.8375 6.93741 32.0667 5.70408 31.45 4.93324C29.4459 2.92908 25.5917 4.62491 22.3542 6.62908C20.9667 6.32074 19.7334 6.16658 18.5 6.16658C11.7167 6.16658 6.16671 11.7166 6.16671 18.4999C6.16671 19.7332 6.32087 20.9666 6.78337 22.1999C4.77921 25.2832 3.08337 29.1374 5.08754 31.2957C5.55004 31.7582 6.32087 32.2207 7.55421 32.2207ZM18.5 9.24991C23.5875 9.24991 27.75 13.4124 27.75 18.4999C27.75 23.5874 23.5875 27.7499 18.5 27.7499C13.4125 27.7499 9.25004 23.5874 9.25004 18.4999C9.25004 13.4124 13.4125 9.24991 18.5 9.24991Z" fill="white"/>
<path d="M16.9582 24.6665C16.9582 25.5915 17.5748 26.2082 18.4998 26.2082C19.4248 26.2082 20.0415 25.5915 20.0415 24.6665V23.7415L21.5832 22.1998V23.1248C21.5832 24.0498 22.1998 24.6665 23.1248 24.6665C24.0498 24.6665 24.6665 24.0498 24.6665 23.1248V19.1165L25.7457 18.0373C26.3623 17.4207 26.3623 16.4957 25.7457 15.879C25.129 15.2623 24.204 15.2623 23.5873 15.879L22.5082 16.9582H18.4998C17.5748 16.9582 16.9582 17.5748 16.9582 18.4998C16.9582 19.4248 17.5748 20.0415 18.4998 20.0415H19.4248L17.8832 21.5832H16.9582C16.0332 21.5832 15.4165 22.1998 15.4165 23.1248C15.4165 24.0498 16.0332 24.6665 16.9582 24.6665Z" fill="white"/>
</svg>
